# xmcd
#
# Track frame offsets: 
#        150
#        17605
#        39490
#        52622
#        70467
#        83375
#        97032
#        106342
#        117657
#        141985
#        161907
#        175315
#        196332
#        214522
#
# Disc length: 3059 seconds
#
# Revision: 0
# Processed by: cddbd v1.4PL0 Copyright (c) Steve Scherf et al.
# Submitted via: ExactAudioCopy v0.95a3
#
DISCID=bd0bf10e
DTITLE=前苏联歌曲 - 遥远的地方
DYEAR=2002
DGENRE=Black Metal
TTITLE0=莫斯科郊外的晚上
TTITLE1=海港之夜
TTITLE2=灯光
TTITLE3=小路
TTITLE4=窑洞里
TTITLE5=遥远的地方
TTITLE6=春天里鲜花怒放
TTITLE7=卡秋莎
TTITLE8=从前你这样
TTITLE9=山楂树
TTITLE10=红莓花开
TTITLE11=下雨之后
TTITLE12=悦耳钟声
TTITLE13=友谊圆舞曲
EXTD=
EXTT0=
EXTT1=
EXTT2=
EXTT3=
EXTT4=
EXTT5=
EXTT6=
EXTT7=
EXTT8=
EXTT9=
EXTT10=
EXTT11=
EXTT12=
EXTT13=
PLAYORDER=
